<svg width="200" height="200" viewBox="0 0 200 200" fill="none" xmlns="http://www.w3.org/2000/svg">
<path d="M100 200C155.752 200 200 154.867 200 100C200 44.2478 154.867 0 100 0C44.2478 0 0 45.1327 0 100C0 154.867 45.1327 200 100 200Z" fill="#2C374B"/>
<path fill-rule="evenodd" clip-rule="evenodd" d="M154.867 63.7166C153.982 62.8316 110.62 37.1679 105.31 35.398C103.54 34.513 99.1152 33.6281 96.4603 34.513C93.8055 35.398 47.7878 61.9467 46.0179 63.7166C45.1329 64.6015 44.2479 66.3715 43.363 67.2564C42.478 69.0263 42.478 69.9113 42.478 100.885V132.743L48.6727 136.283C52.2125 138.053 54.8674 139.823 54.8674 139.823C55.7524 139.823 97.3453 73.4511 97.3453 72.5662C97.3453 71.6812 87.6108 71.6812 84.9559 72.5662C81.4161 73.4511 78.7612 75.221 76.9913 76.9909C76.1063 77.8759 70.7966 86.7255 63.717 96.46C57.5223 106.194 52.2125 115.044 52.2125 115.044C52.2125 115.044 52.2125 106.194 52.2125 93.8051V71.6812L53.0975 70.7962C54.8674 69.0263 100 43.3626 101.77 43.3626C102.655 43.3626 103.54 43.3626 114.159 49.5573C117.699 51.3272 127.434 56.6369 135.398 61.9467C143.363 66.3715 150.443 70.7962 151.328 71.6812L152.213 72.5662V118.584L130.089 84.0706C129.204 82.3007 128.319 80.5308 127.434 79.6458C127.434 79.6458 126.549 81.4157 121.239 90.2653C120.354 91.1502 119.469 92.9201 119.469 93.8051L118.584 95.575L119.469 96.46L120.354 97.3449C120.354 97.3449 120.354 98.2299 121.239 98.2299L123.009 100.885C123.009 100.885 123.009 101.77 123.894 101.77C124.779 102.655 125.664 104.425 125.664 105.31C125.664 105.31 125.664 105.31 125.664 106.194L144.248 136.283L142.478 137.168C141.593 138.053 140.708 138.053 139.823 138.053L116.814 102.655L115.929 101.77L114.159 105.31L105.31 119.469L123.009 147.787C120.354 149.557 105.31 160.177 104.425 160.177C103.54 160.177 83.186 146.902 84.071 146.017C84.071 146.017 90.2656 135.398 97.3453 123.009C103.54 112.389 111.505 99.1148 116.814 90.2653C123.009 79.6458 125.664 74.3361 125.664 74.3361C125.664 74.3361 121.239 74.3361 115.929 74.3361H107.08L86.7258 107.964C79.6462 120.354 72.5665 131.858 69.0267 138.053C62.832 138.938 61.0621 140.708 61.0621 140.708L60.1771 142.478L76.1064 151.327C84.9559 156.637 92.9205 161.062 94.6904 161.947C97.3453 163.717 101.77 163.717 103.54 163.717C105.31 162.832 151.328 136.283 153.982 134.513C154.867 133.628 155.752 132.743 156.637 130.973L157.522 128.318V99.1148V69.9113L156.637 68.1414C156.637 66.3715 154.867 64.6015 154.867 63.7166Z" fill="white"/>
<path d="M150.442 117.699L123.894 76.9912L114.159 92.9204L139.823 134.513L151.327 129.204L150.442 117.699Z" fill="#24A2EE"/>
<path d="M138.053 139.823L111.504 99.1152L99.9995 116.814L121.238 150.443L134.513 145.133L138.053 139.823Z" fill="#24A2EE"/>
<path fill-rule="evenodd" clip-rule="evenodd" d="M51.3273 71.681L99.9999 43.3624L148.672 71.681V128.318L99.9999 156.637L63.7167 136.283L59.2919 144.247L99.1149 167.256C99.9998 168.141 100.885 168.141 101.77 167.256L157.522 135.398C158.407 134.513 159.292 133.628 159.292 132.743V69.0261C159.292 68.1412 158.407 67.2562 157.522 66.3713L101.77 34.5128C100.885 33.6279 99.9998 33.6279 99.1149 34.5128L43.3627 65.4863C42.4777 66.3713 41.5928 67.2562 41.5928 68.1412V131.858C41.5928 132.743 42.4777 133.628 43.3627 134.513L54.8671 140.708L60.1768 132.743L52.2122 128.318V71.681H51.3273Z" fill="#98BCDC"/>
<path d="M121.238 71.6812H102.654L59.2915 142.478L74.3358 151.327L121.238 71.6812Z" fill="white"/>
<path d="M74.3361 78.7612C78.7609 71.6815 91.1503 71.6815 96.46 72.5665L53.9822 140.708C52.2122 139.823 48.6724 138.053 46.0176 136.283C42.4777 134.513 41.5928 134.513 41.5928 131.859V128.319C51.3273 114.159 69.9114 85.8408 74.3361 78.7612Z" fill="white"/>
</svg>
