<svg id="bnb" xmlns="http://www.w3.org/2000/svg" width="25" height="25" viewBox="0 0 25 25">
  <path id="Path_114" data-name="Path 114" d="M12.5,0A12.5,12.5,0,1,1,0,12.5,12.5,12.5,0,0,1,12.5,0Z" fill="#f0b90b" fill-rule="evenodd"/>
  <path id="Path_115" data-name="Path 115" d="M524.228,730.015l.009,3.289,2.795,1.644v1.926l-4.43-2.6v-5.222l1.627.962Zm0-3.289v1.917l-1.628-.963v-1.917l1.628-.963,1.635.963-1.635.963Zm3.971-.963,1.628-.963,1.635.963-1.635.963-1.628-.963Z" transform="translate(-517.351 -717.507)" fill="#fff"/>
  <path id="Path_116" data-name="Path 116" d="M803.9,732.622V730.7l1.628.963v1.917l-1.628-.954Zm2.795,3.016,1.628.963,1.635-.963v1.917l-1.635.963-1.628-.963v-1.917Zm5.6-9.875,1.628-.963,1.635.963v1.917l-1.635.963v-1.917l-1.628-.963Zm1.628,7.541.009-3.289,1.628-.963v5.222l-4.43,2.6v-1.925l2.794-1.643Z" transform="translate(-795.813 -717.496)" fill="#fff"/>
  <path id="Path_117" data-name="Path 117" d="M1530.427,1318.325l-1.627.954v-1.917l1.627-.963Z" transform="translate(-1513.482 -1303.206)" fill="#fff"/>
  <path id="Path_118" data-name="Path 118" d="M812.752,400.8l.009,1.926-2.8,1.644v3.3l-1.628.954-1.628-.954v-3.3l-2.8-1.644V400.8l1.634-.963,2.786,1.652,2.8-1.652,1.635.963Zm-8.852-3.288,4.422-2.607,4.43,2.607-1.628.963-2.8-1.652-2.795,1.652-1.628-.963Z" transform="translate(-795.826 -390.921)" fill="#fff"/>
</svg>
