<svg xmlns="http://www.w3.org/2000/svg" width="25" height="25" viewBox="0 0 25 25">
  <g id="Layer_x0020_1" transform="translate(0 -0.001)">
    <g id="_1421344023328" transform="translate(0 0.001)">
      <path id="Path_82" data-name="Path 82" d="M24.626,15.525a12.5,12.5,0,1,1-9.1-15.15,12.5,12.5,0,0,1,9.1,15.15h0Z" transform="translate(0 -0.001)" fill="#f7931a"/>
      <path id="Path_83" data-name="Path 83" d="M1011.391,720.245c.332-1.959-1.358-3.012-3.67-3.715l.75-2.654-1.831-.4-.73,2.584c-.481-.106-.976-.206-1.467-.3l.735-2.6-1.83-.4-.75,2.653c-.4-.08-.79-.159-1.169-.242l0-.008-2.525-.556-.487,1.725s1.358.275,1.33.292c.741.163.875.6.853.94l-.854,3.023a1.618,1.618,0,0,1,.19.054l-.194-.042-1.2,4.235a.681.681,0,0,1-.839.384c.018.023-1.331-.293-1.331-.293l-.909,1.849,2.383.524c.443.1.878.2,1.305.3l-.758,2.684,1.829.4.75-2.656c.5.12.984.23,1.459.334l-.748,2.643,1.831.4.758-2.679c3.122.521,5.469.311,6.458-2.18.8-2.006-.04-3.163-1.682-3.918a2.719,2.719,0,0,0,2.338-2.372h0Zm-4.183,5.176c-.566,2.006-4.394.922-5.635.65l1.005-3.556c1.241.273,5.221.814,4.63,2.906Zm.566-5.2c-.516,1.825-3.7.9-4.736.67l.911-3.225c1.034.227,4.362.652,3.824,2.555Z" transform="translate(-991.254 -709.731)" fill="#fff"/>
    </g>
  </g>
</svg>
