<svg id="cake" xmlns="http://www.w3.org/2000/svg" width="25" height="25" viewBox="0 0 25 25">
  <path id="Path_88" data-name="Path 88" d="M4.5,3.906a3.3,3.3,0,1,1,6.546-.625V7.344c.473,0,.946-.078,1.42-.078a7.723,7.723,0,0,1,1.341.078V3.281A3.317,3.317,0,0,1,17.114,0a3.389,3.389,0,0,1,3.312,3.906l-.868,4.766C22.634,10,25,12.344,25,15.234v1.8c0,2.422-1.577,4.453-3.864,5.781A16.581,16.581,0,0,1,12.461,25a16.581,16.581,0,0,1-8.675-2.187C1.577,21.484,0,19.453,0,17.031v-1.8C0,12.344,2.287,10,5.363,8.672ZM18.375,9.3,19.4,3.672A2.315,2.315,0,0,0,17.114.937,2.278,2.278,0,0,0,14.826,3.2V8.359A4.538,4.538,0,0,0,13.8,8.281c-.473,0-.868-.078-1.341-.078a8.652,8.652,0,0,0-1.42.078c-.315,0-.71.078-1.025.078V3.281a2.271,2.271,0,1,0-4.5.469L6.546,9.375c-3.312,1.25-5.521,3.438-5.521,5.938v1.8c0,3.828,5.126,6.953,11.435,6.953S23.9,20.938,23.9,17.109v-1.8C23.975,12.734,21.767,10.547,18.375,9.3Z" fill="#633001" fill-rule="evenodd"/>
  <path id="Path_89" data-name="Path 89" d="M23.723,21.8c0,4.9-5,8.9-11.162,8.9S1.4,26.7,1.4,21.8V19.5H23.8v2.3Z" transform="translate(0 -7)" fill="#fedc90"/>
  <path id="Path_90" data-name="Path 90" d="M5.706,3.9A2.166,2.166,0,0,1,7.859,1.3a2.194,2.194,0,0,1,2.23,2.154v4.9c.769-.074,1.538-.149,2.384-.149.769,0,1.538.074,2.307.149v-4.9A2.194,2.194,0,0,1,17.01,1.3a2.258,2.258,0,0,1,2.23,2.6l-1,5.347c3.23,1.188,5.46,3.268,5.46,5.644,0,3.639-5,6.61-11.15,6.61S1.4,18.529,1.4,14.89c0-2.376,2.153-4.456,5.383-5.644Z" fill="#d1884f" fill-rule="evenodd"/>
  <path id="Path_91" data-name="Path 91" d="M11.8,18.9c0,1.3-.7,2.4-1.6,2.4s-1.6-1.1-1.6-2.4.7-2.4,1.6-2.4S11.8,17.6,11.8,18.9Z" transform="translate(-2.022 -4.246)" fill="#633001"/>
  <path id="Path_92" data-name="Path 92" d="M22.9,18.9c0,1.3-.7,2.4-1.6,2.4s-1.6-1.1-1.6-2.4.7-2.4,1.6-2.4S22.9,17.6,22.9,18.9Z" transform="translate(-4.631 -4.246)" fill="#633001"/>
</svg>
