<svg xmlns="http://www.w3.org/2000/svg" xmlns:xlink="http://www.w3.org/1999/xlink" width="319.781" height="355.313" viewBox="0 0 319.781 355.313">
  <defs>
    <linearGradient id="linear-gradient" x1="0.5" x2="0.5" y2="1" gradientUnits="objectBoundingBox">
      <stop offset="0" stop-color="orange" stop-opacity="0.831"/>
      <stop offset="1" stop-color="#805300" stop-opacity="0.71"/>
    </linearGradient>
  </defs>
  <g id="empty" transform="translate(-35.219 -2.188)">
    <path id="Path_82" data-name="Path 82" d="M76.672,2.188A17.786,17.786,0,0,0,58.906,19.953v5.922H52.984A17.786,17.786,0,0,0,35.219,43.641V339.734A17.785,17.785,0,0,0,52.984,357.5H269.86l-21.319-11.844H52.984a5.928,5.928,0,0,1-5.922-5.922V43.641a5.929,5.929,0,0,1,5.922-5.922H266.172a5.929,5.929,0,0,1,5.922,5.922V225.977l15.06-8.365a17.761,17.761,0,0,1,17.254,0l15.061,8.365V19.953A17.787,17.787,0,0,0,301.7,2.188ZM64.828,49.563a5.922,5.922,0,0,0-5.922,5.922V280.516a5.923,5.923,0,0,0,5.922,5.922H224.719V262.75a17.764,17.764,0,0,1,9.138-15.529l26.393-14.664V55.484a5.923,5.923,0,0,0-5.922-5.922Zm96.484,19.5,8.376,8.377L151.923,95.2,178.5,79.688ZM222.07,79.8l5.3,10.592L168.149,120,241,98.043ZM98,90.688,82.594,138.844c.9,0,45.3-32.549,46.11-32.156,9.375-1.734-.554-14.114,0-13.408L76.672,266.234,187.114,167.62l1.355-1.355c3.332-3.332-69.88,66.292-65.168,66.292s123.867.111,127.2,3.443l-27.516-60.345c.55.55-.782,1.626-.484,2.345s2.219,1.066,2.219,1.844a5.921,5.921,0,0,1-1.735,4.188l-10.616,10.616,22.461,22.46a5.924,5.924,0,0,1,1.284,6.456c-.3.718-51.563,19.137-52.113,19.687h33.063a5.914,5.914,0,0,1-1.921,1.285c-.719.3-.364-2.035-1.142-2.036s-2.673,2.333-3.392,2.036,17.115,3.236,16.565,2.685l-40.946-26.432L175.61,231.407a5.933,5.933,0,0,1-1.921,1.284c-.719.3-.411-1.284-1.189-1.284s-2.626,1.582-3.345,1.284a5.926,5.926,0,0,1-1.922-1.284l-9.39-9.392a17.766,17.766,0,0,1,0-25.124L250.5,167.62,84.858,137.126c-.705-.555,1.034-2.319.642-3.126s27.449-64.041,27.449-64.938L82.594,96.938c0-1.571,8.3-.623,9.406-1.733S96.429,90.688,98,90.688ZM70.75,144.135,177.344,177.39l1.336-1.334-57.512-73.2Zm23.688-32.9V129.59l73.2,57.512,1.334-1.336ZM235.125,120.8,238,132.291l-47.375,11.844L246,135.543ZM98.487,162.382l3.745,11.236L84.466,179.54l94.214,82.048Zm102.452,10.526a5.936,5.936,0,0,0-4.1,1.732l-30.625,30.626a5.927,5.927,0,0,0,0,8.374l5.2,5.2,39-39-5.2-5.2a5.935,5.935,0,0,0-4.279-1.732Zm-87.99,9.982,10.352,5.751-29.61,53.3,6.309-4.9Zm17.134,19.479-11.958,2.9L107,261.043l11.239.545Zm73.911.655-9.392,9.39-28.383,26.629h70.345Zm91.828,24.195a5.913,5.913,0,0,0-2.916.746l-53.3,29.609a5.924,5.924,0,0,0-3.047,5.176v59.219a5.927,5.927,0,0,0,3.047,5.176l53.3,29.609a5.922,5.922,0,0,0,5.751,0l53.3-29.609A5.923,5.923,0,0,0,355,321.969V262.75a5.92,5.92,0,0,0-3.046-5.176l-53.3-29.609A5.916,5.916,0,0,0,295.822,227.219Zm-.041,12.7,47.375,26.32v52.25L295.781,344.8l-47.375-26.321v-52.25Zm.239,16.918a5.927,5.927,0,0,0-2.887.622L269.445,269.3l5.3,10.592,20.779-10.39,23.948,14.368V304.2h11.843V280.516a5.923,5.923,0,0,0-2.875-5.078l-29.61-17.766A5.935,5.935,0,0,0,296.02,256.832ZM58.906,298.281v11.844H70.75V298.281Zm23.688,0v11.844H94.438V298.281Zm23.687,0v11.844h11.844V298.281Zm23.688,0v11.844h11.843V298.281ZM58.906,321.969v11.843H177.344V321.969Z" fill="url(#linear-gradient)"/>
    <path id="Path_83" data-name="Path 83" d="M117.186,125.057a16.412,16.412,0,0,1-5.795-24.686C118.9,90.745,132.306,80.778,155.468,81c29.57.287,55.8,19.914,55.53,47.785-.187,19.371-14.694,31.089-33.7,39.01-6.732,2.9-6.982,8.433-7.046,14.956a11.055,11.055,0,0,1-11.147,10.962l-10.448-.1a11.056,11.056,0,0,1-10.933-11.177l.1-10.477c.084-8.7.548-15.808,9.474-21.454,12.1-7.591,23.341-8.075,23.477-22.108a15.729,15.729,0,0,0-15.811-16.365,21.678,21.678,0,0,0-17.65,8.48,16.445,16.445,0,0,1-20.134,4.543Zm58.945,102.63a22.574,22.574,0,1,1-22.451-22.954,22.536,22.536,0,0,1,22.451,22.954Z" fill="rgba(255,165,0,0.66)"/>
  </g>
</svg>
