<svg width="200" height="200" viewBox="0 0 200 200" fill="none" xmlns="http://www.w3.org/2000/svg">
<path d="M100 200C155.228 200 200 155.228 200 100C200 44.7715 155.228 0 100 0C44.7715 0 0 44.7715 0 100C0 155.228 44.7715 200 100 200Z" fill="#627EEA"/>
<path d="M103.116 24.9863V80.4265L149.972 101.367L103.116 24.9863Z" fill="white" fill-opacity="0.602"/>
<path d="M103.116 24.9863L56.2603 101.367L103.116 80.4265V24.9863Z" fill="white"/>
<path d="M103.116 137.288V174.959L150 110.087L103.116 137.288Z" fill="white" fill-opacity="0.602"/>
<path d="M103.116 174.959V137.288L56.2603 110.087L103.116 174.959Z" fill="white"/>
<path d="M103.116 128.568L149.972 101.367L103.116 80.4268V128.568Z" fill="white" fill-opacity="0.2"/>
<path d="M56.2603 101.367L103.116 128.568V80.4268L56.2603 101.367Z" fill="white" fill-opacity="0.602"/>
</svg>
