<svg xmlns="http://www.w3.org/2000/svg" width="25.833" height="25.833" viewBox="0 0 25.833 25.833">
  <g id="gear" transform="translate(-2.583 -2.583)">
    <path id="Path_119" data-name="Path 119" d="M17.437,6.458,16.92,3.1a.858.858,0,0,0-.646-.517h-1.55c-.258,0-.646.258-.646.517l-.517,3.358ZM13.562,24.542l.517,3.358a.591.591,0,0,0,.646.517h1.55c.258,0,.646-.258.646-.517l.517-3.358Zm10.979-7.1,3.358-.517a.591.591,0,0,0,.517-.646v-1.55c0-.258-.258-.646-.517-.646l-3.358-.517ZM6.458,13.563,3.1,14.079a.858.858,0,0,0-.517.646v1.55c0,.258.258.646.517.646l3.358.517Zm6.2-6.846-2.2-2.583A.487.487,0,0,0,9.687,4L8.4,4.779c-.258,0-.387.388-.258.646L9.3,8.654Zm5.683,17.567,2.2,2.583a.608.608,0,0,0,.775.129l1.292-.775a.621.621,0,0,0,.258-.775L21.7,22.217Zm5.942-11.625,2.583-2.2A.487.487,0,0,0,27,9.688L26.221,8.4a.621.621,0,0,0-.775-.258L22.216,9.3ZM6.716,18.342l-2.583,2.2A.487.487,0,0,0,4,21.313L4.779,22.6a.621.621,0,0,0,.775.258L8.783,21.7ZM8.654,9.3,5.425,8.138c-.258-.129-.517,0-.775.258L3.875,9.688a.621.621,0,0,0,.258.775l2.583,2.2ZM22.346,21.7l3.229,1.163a.621.621,0,0,0,.775-.258l.775-1.292c.129-.258.129-.646-.129-.775l-2.583-2.2ZM21.7,8.654l1.163-3.229A.621.621,0,0,0,22.6,4.65l-1.292-.775a.621.621,0,0,0-.775.258l-2.2,2.583ZM9.3,22.346,8.137,25.575a.621.621,0,0,0,.258.775l1.292.775a.621.621,0,0,0,.775-.258l2.2-2.583Zm6.2-2.971A3.875,3.875,0,1,1,19.375,15.5,3.806,3.806,0,0,1,15.5,19.375Zm0-5.167A1.292,1.292,0,1,0,16.791,15.5,1.22,1.22,0,0,0,15.5,14.208Z" fill="orange"/>
    <path id="Path_120" data-name="Path 120" d="M15.5,6.458A9.042,9.042,0,1,0,24.541,15.5,8.986,8.986,0,0,0,15.5,6.458Zm0,11.625A2.583,2.583,0,1,1,18.083,15.5,2.591,2.591,0,0,1,15.5,18.083Z" fill="orange" opacity="0.3"/>
    <path id="Path_121" data-name="Path 121" d="M14.208,6.458h2.583v7.75H14.208Z" fill="orange"/>
    <path id="Path_122" data-name="Path 122" d="M6.967,18.908l6.712-3.874,1.291,2.237L8.258,21.145Z" fill="orange"/>
    <path id="Path_123" data-name="Path 123" d="M16.042,17.224l1.292-2.237,6.711,3.876L22.753,21.1Z" fill="orange"/>
    <path id="Path_124" data-name="Path 124" d="M15.5,25.833A10.333,10.333,0,1,1,25.834,15.5,10.364,10.364,0,0,1,15.5,25.833Zm0-18.083a7.75,7.75,0,1,0,7.75,7.75A7.773,7.773,0,0,0,15.5,7.75Z" fill="orange"/>
  </g>
</svg>
