<svg xmlns="http://www.w3.org/2000/svg" width="191.798" height="156.801" viewBox="0 0 191.798 156.801">
  <g id="stake" transform="translate(-0.4 -0.225)">
    <path id="Path_867" data-name="Path 867" d="M191.6,57.214v.444a6.713,6.713,0,0,1-3.427,5.72l-6.336,3.661-77.314,44.636a16.485,16.485,0,0,1-16.456,0l-77.3-44.636L4.427,63.377a6.864,6.864,0,0,1,0-11.883L88.065,3.21a16.425,16.425,0,0,1,16.456,0l83.65,48.284A6.728,6.728,0,0,1,191.6,57.214Z" fill="#fff0ff" stroke="#782186" stroke-linecap="round" stroke-linejoin="round" stroke-width="1.2"/>
    <path id="Path_868" data-name="Path 868" d="M34.65,56.173l10.083-5.831" transform="translate(7.83 11.481)" fill="none" stroke="#782186" stroke-linecap="round" stroke-linejoin="round" stroke-width="1.2"/>
    <path id="Path_869" data-name="Path 869" d="M65.38,73.911l10.083-5.818" transform="translate(14.98 15.611)" fill="none" stroke="#782186" stroke-linecap="round" stroke-linejoin="round" stroke-width="1.2"/>
    <path id="Path_870" data-name="Path 870" d="M59.23,70.361l10.1-5.818" transform="translate(13.549 14.785)" fill="none" stroke="#782186" stroke-linecap="round" stroke-linejoin="round" stroke-width="1.2"/>
    <path id="Path_871" data-name="Path 871" d="M53.09,66.811l10.083-5.818" transform="translate(12.121 13.959)" fill="none" stroke="#782186" stroke-linecap="round" stroke-linejoin="round" stroke-width="1.2"/>
    <path id="Path_872" data-name="Path 872" d="M46.94,63.273l10.083-5.831" transform="translate(10.69 13.133)" fill="none" stroke="#782186" stroke-linecap="round" stroke-linejoin="round" stroke-width="1.2"/>
    <path id="Path_873" data-name="Path 873" d="M40.79,59.723l10.1-5.831" transform="translate(9.259 12.307)" fill="none" stroke="#782186" stroke-linecap="round" stroke-linejoin="round" stroke-width="1.2"/>
    <path id="Path_874" data-name="Path 874" d="M123.886,56.173l-10.1-5.831" transform="translate(26.245 11.481)" fill="none" stroke="#782186" stroke-linecap="round" stroke-linejoin="round" stroke-width="1.2"/>
    <path id="Path_875" data-name="Path 875" d="M93.143,73.911,83.06,68.092" transform="translate(19.094 15.611)" fill="none" stroke="#782186" stroke-linecap="round" stroke-linejoin="round" stroke-width="1.2"/>
    <path id="Path_876" data-name="Path 876" d="M99.293,70.361,89.21,64.543" transform="translate(20.525 14.785)" fill="none" stroke="#782186" stroke-linecap="round" stroke-linejoin="round" stroke-width="1.2"/>
    <path id="Path_877" data-name="Path 877" d="M105.446,66.811l-10.1-5.818" transform="translate(21.954 13.959)" fill="none" stroke="#782186" stroke-linecap="round" stroke-linejoin="round" stroke-width="1.2"/>
    <path id="Path_878" data-name="Path 878" d="M111.583,63.273,101.5,57.443" transform="translate(23.385 13.133)" fill="none" stroke="#782186" stroke-linecap="round" stroke-linejoin="round" stroke-width="1.2"/>
    <path id="Path_879" data-name="Path 879" d="M117.733,59.723,107.65,53.893" transform="translate(24.816 12.307)" fill="none" stroke="#782186" stroke-linecap="round" stroke-linejoin="round" stroke-width="1.2"/>
    <path id="Path_880" data-name="Path 880" d="M34.65,38.5l10.083,5.818" transform="translate(7.83 8.726)" fill="none" stroke="#782186" stroke-linecap="round" stroke-linejoin="round" stroke-width="1.2"/>
    <path id="Path_881" data-name="Path 881" d="M65.38,20.763l10.083,5.818" transform="translate(14.98 4.598)" fill="none" stroke="#782186" stroke-linecap="round" stroke-linejoin="round" stroke-width="1.2"/>
    <path id="Path_882" data-name="Path 882" d="M59.23,24.313l10.1,5.818" transform="translate(13.549 5.424)" fill="none" stroke="#782186" stroke-linecap="round" stroke-linejoin="round" stroke-width="1.2"/>
    <path id="Path_883" data-name="Path 883" d="M53.09,27.853l10.083,5.831" transform="translate(12.121 6.248)" fill="none" stroke="#782186" stroke-linecap="round" stroke-linejoin="round" stroke-width="1.2"/>
    <path id="Path_884" data-name="Path 884" d="M46.94,31.4l10.083,5.831" transform="translate(10.69 7.074)" fill="none" stroke="#782186" stroke-linecap="round" stroke-linejoin="round" stroke-width="1.2"/>
    <path id="Path_885" data-name="Path 885" d="M40.79,34.952l10.1,5.831" transform="translate(9.259 7.9)" fill="none" stroke="#782186" stroke-linecap="round" stroke-linejoin="round" stroke-width="1.2"/>
    <path id="Path_886" data-name="Path 886" d="M123.886,38.5l-10.1,5.818" transform="translate(26.245 8.726)" fill="none" stroke="#782186" stroke-linecap="round" stroke-linejoin="round" stroke-width="1.2"/>
    <path id="Path_887" data-name="Path 887" d="M93.143,20.763,83.06,26.581" transform="translate(19.094 4.598)" fill="none" stroke="#782186" stroke-linecap="round" stroke-linejoin="round" stroke-width="1.2"/>
    <path id="Path_888" data-name="Path 888" d="M99.293,24.313,89.21,30.131" transform="translate(20.525 5.424)" fill="none" stroke="#782186" stroke-linecap="round" stroke-linejoin="round" stroke-width="1.2"/>
    <path id="Path_889" data-name="Path 889" d="M105.446,27.853l-10.1,5.831" transform="translate(21.954 6.248)" fill="none" stroke="#782186" stroke-linecap="round" stroke-linejoin="round" stroke-width="1.2"/>
    <path id="Path_890" data-name="Path 890" d="M111.583,31.4,101.5,37.233" transform="translate(23.385 7.074)" fill="none" stroke="#782186" stroke-linecap="round" stroke-linejoin="round" stroke-width="1.2"/>
    <path id="Path_891" data-name="Path 891" d="M117.733,34.952,107.65,40.783" transform="translate(24.816 7.9)" fill="none" stroke="#782186" stroke-linecap="round" stroke-linejoin="round" stroke-width="1.2"/>
    <path id="Path_892" data-name="Path 892" d="M140.223,55.523l-12.771,7.371L93.319,82.6a9.87,9.87,0,0,1-9.837,0L49.35,62.894,36.579,55.523a3.274,3.274,0,0,1,0-5.67l46.9-27.082a9.87,9.87,0,0,1,9.837,0l46.9,27.082A3.274,3.274,0,0,1,140.223,55.523Z" transform="translate(7.898 4.76)" fill="orange" stroke="#782186" stroke-linecap="round" stroke-linejoin="round" stroke-width="1.2"/>
    <path id="Path_893" data-name="Path 893" d="M124.743,59.041,90.61,78.751a9.87,9.87,0,0,1-9.837,0L46.64,59.041,80.773,39.33a9.87,9.87,0,0,1,9.837,0l34.133,19.711Z" transform="translate(10.62 8.613)" fill="#fff0ff" stroke="#782186" stroke-miterlimit="10" stroke-width="1.2"/>
    <path id="Path_894" data-name="Path 894" d="M191.6,47v42.38a6.713,6.713,0,0,1-3.427,5.72l-83.65,48.3a16.485,16.485,0,0,1-16.456,0L4.427,95.1A6.771,6.771,0,0,1,1,89.162V46.783a6.771,6.771,0,0,0,3.427,5.942l6.336,3.661,77.3,44.636a16.485,16.485,0,0,0,16.456,0l77.314-44.636,6.336-3.661A6.713,6.713,0,0,0,191.6,47Z" transform="translate(0 10.653)" fill="orange" stroke="#f10" stroke-linecap="round" stroke-linejoin="round" stroke-width="1.2"/>
    <path id="Path_895" data-name="Path 895" d="M15.81,58.553V77.24a5.455,5.455,0,0,0,2.712,4.709L38.245,93.327a5.44,5.44,0,0,1,2.712,4.709v9.282" transform="translate(3.446 13.392)" fill="none" stroke="#f10" stroke-linecap="round" stroke-linejoin="round" stroke-width="1.2"/>
    <path id="Path_896" data-name="Path 896" d="M120.4,113.8v-9.824a5.455,5.455,0,0,1,2.712-4.709l19.723-11.378a5.44,5.44,0,0,0,2.712-4.709V65.712" transform="translate(27.783 15.058)" fill="none" stroke="#f10" stroke-linecap="round" stroke-linejoin="round" stroke-width="1.2"/>
    <path id="Path_897" data-name="Path 897" d="M56.01,90v32.234" transform="translate(12.8 20.71)" fill="none" stroke="#f10" stroke-linecap="round" stroke-linejoin="round" stroke-width="1.2"/>
    <path id="Path_898" data-name="Path 898" d="M106.29,78.482v34.305" transform="translate(24.499 18.029)" fill="none" stroke="#f10" stroke-linecap="round" stroke-linejoin="round" stroke-width="1.2"/>
  </g>
</svg>
