<svg xmlns="http://www.w3.org/2000/svg" width="21.85" height="25" viewBox="0 0 21.85 25">
  <g id="uniswap" transform="translate(0.004)">
    <path id="Path_102" data-name="Path 102" d="M64.421,43.577c-.273-.039-.286-.052-.156-.065a4.282,4.282,0,0,1,1.22.1,5.245,5.245,0,0,1,2.674,1.791l.234.273.337-.052a7.237,7.237,0,0,1,4.153.519,5.38,5.38,0,0,1,.935.545,1.255,1.255,0,0,1,.091.363,2.2,2.2,0,0,1-.143,1.415.38.38,0,0,0-.039.415.391.391,0,0,0,.35.221c.311,0,.636-.493.792-1.181l.065-.273.117.13a5.111,5.111,0,0,1,1.259,2.492l.026.195-.117-.169a2.192,2.192,0,0,0-.623-.662,3.9,3.9,0,0,0-2.142-.454,8.774,8.774,0,0,1-2.375-.363c-1.064-.35-1.609-.8-2.868-2.479a11.929,11.929,0,0,0-1.259-1.48A4.4,4.4,0,0,0,64.421,43.577Z" transform="translate(-55.858 -37.905)" fill="#ff007a"/>
    <path id="Path_103" data-name="Path 103" d="M128.747,47.837a2.807,2.807,0,0,1,.234-1.116.9.9,0,0,1,.117-.221c.013,0-.013.091-.052.195a2.479,2.479,0,0,0-.052,1.142c.091.584.13.662.753,1.3.286.3.623.675.753.831l.221.286-.221-.208a7.9,7.9,0,0,0-1.038-.818c-.091-.052-.1-.052-.169.013s-.065.13-.065.506a2.781,2.781,0,0,1-.286,1.324c-.1.195-.117.156-.026-.065a1.891,1.891,0,0,0,.078-.8c0-1.129-.13-1.4-.922-1.856-.195-.117-.532-.286-.727-.376a2.875,2.875,0,0,1-.35-.169,5.8,5.8,0,0,1,1.09.324c.454.182.532.195.584.182C128.708,48.265,128.734,48.161,128.747,47.837Z" transform="translate(-110.515 -40.514)" fill="#ff007a"/>
    <path id="Path_104" data-name="Path 104" d="M64.545,51.163a4.586,4.586,0,0,1-.818-2.791l.026-.273.13.026a3.046,3.046,0,0,1,.831.312c.519.311.753.74.973,1.8.065.312.156.675.195.792a4.686,4.686,0,0,0,.519.935c.143.208.052.312-.273.286A2.659,2.659,0,0,1,64.545,51.163Z" transform="translate(-55.451 -41.907)" fill="#ff007a"/>
    <path id="Path_105" data-name="Path 105" d="M112.078,89.355c-2.57-1.038-3.478-1.934-3.478-3.452,0-.221.013-.4.013-.4a2.441,2.441,0,0,1,.221.169,5.189,5.189,0,0,0,2.726.831,11.305,11.305,0,0,1,1.986.415,3.792,3.792,0,0,1,2.778,3.024,5.25,5.25,0,0,1-.078,1.622,3.254,3.254,0,0,1-.415.934c-.013,0-.039-.065-.039-.169a2.112,2.112,0,0,0-.753-1.467A10.372,10.372,0,0,0,112.078,89.355Z" transform="translate(-94.509 -74.505)" fill="#ff007a"/>
    <path id="Path_106" data-name="Path 106" d="M84.408,113.54a3.074,3.074,0,0,0-.13-.545l-.065-.195.117.143a2.285,2.285,0,0,1,.415.753,1.62,1.62,0,0,1,.091.727,1.656,1.656,0,0,1-.091.7,2.349,2.349,0,0,1-.545.87,3.124,3.124,0,0,1-1.947.857c-.156.013-.6.052-.986.078a7.613,7.613,0,0,0-2.206.363c-.078.026-.156.052-.169.039a2.94,2.94,0,0,1,.7-.415,7.064,7.064,0,0,1,1.947-.519,8.894,8.894,0,0,0,1.155-.234A2.244,2.244,0,0,0,84.408,113.54Z" transform="translate(-68.655 -98.278)" fill="#ff007a"/>
    <path id="Path_107" data-name="Path 107" d="M128.294,119.632a3.029,3.029,0,0,1-.234-2.1c.026-.065.052-.13.078-.13a.558.558,0,0,1,.182.091c.156.1.48.286,1.311.74a6.629,6.629,0,0,1,2.064,1.519,3.21,3.21,0,0,1,.688,1.57,5.148,5.148,0,0,1-.065,1.545,3.826,3.826,0,0,1-1.882,2.492,1.8,1.8,0,0,1-.273.13,1.032,1.032,0,0,1,.117-.286,2.576,2.576,0,0,0,.117-2.012,8.264,8.264,0,0,0-1.038-1.869A12.329,12.329,0,0,1,128.294,119.632Z" transform="translate(-111.36 -102.329)" fill="#ff007a"/>
    <path id="Path_108" data-name="Path 108" d="M54.173,154.459A7.056,7.056,0,0,1,57.4,152.9a4.81,4.81,0,0,1,1.674.065,2.89,2.89,0,0,1,1.635,1.051,3.876,3.876,0,0,1,.6,1.765c.052.35.117.714.13.792a1.742,1.742,0,0,0,.571,1.025,1.975,1.975,0,0,0,1.791.052.873.873,0,0,1,.221-.065,1.989,1.989,0,0,1-.558.376,1.838,1.838,0,0,1-.934.221,1.874,1.874,0,0,1-1.583-.973,7.294,7.294,0,0,1-.428-.857,3.121,3.121,0,0,0-1.22-1.713,1.6,1.6,0,0,0-1.519-.143.977.977,0,0,0-.337,1.519,1.327,1.327,0,0,0,.74.389.792.792,0,0,0,.9-.792.621.621,0,0,0-.428-.636c-.415-.182-.87.026-.857.428a.357.357,0,0,0,.247.35c.1.052.1.052.026.039a.481.481,0,0,1-.169-.844.934.934,0,0,1,1.389.3,1.36,1.36,0,0,1,.026.883,1.214,1.214,0,0,1-1.48.7,2.117,2.117,0,0,1-1.129-.766,3.449,3.449,0,0,0-2.557-1.311l-.247-.039Z" transform="translate(-46.908 -133.184)" fill="#ff007a"/>
    <path id="Path_109" data-name="Path 109" d="M.437.554C3.462,4.2,8.121,9.867,8.355,10.176c.195.258.117.5-.208.683a2,2,0,0,1-.74.206.94.94,0,0,1-.623-.27c-.117-.116-.623-.85-1.765-2.615C4.149,6.827,3.41,5.706,3.4,5.693A20.556,20.556,0,0,0,4.928,8.476a22.485,22.485,0,0,1,1.324,2.473c0,.167-.052.258-.26.489a2.854,2.854,0,0,0-.623,1.739A5.373,5.373,0,0,1,3.89,16.14a5.3,5.3,0,0,0-.818,1.146,2.165,2.165,0,0,0-.26,1.03,3.2,3.2,0,0,0,.169,1.262A4.29,4.29,0,0,0,3.6,20.79a2.988,2.988,0,0,1,.48.94c0,.1.026.1.493,0a5.149,5.149,0,0,0,2.544-1.237,1.161,1.161,0,0,0,.389-.979,1.043,1.043,0,0,0-.091-.541,2.321,2.321,0,0,0-.909-.876c-.7-.477-1-.863-1.077-1.378a2.41,2.41,0,0,1,.4-1.546,4.593,4.593,0,0,0,.571-2.035c.039-.541.1-.76.26-.927a.971.971,0,0,1,.714-.3,2.388,2.388,0,0,0,1.428-.58,1.207,1.207,0,0,0,.441-.94l.013-.3-.169-.18C8.484,9.223.035,0,0,0-.017,0,.191.245.437.554ZM4.422,18.87a.529.529,0,0,0-.169-.708c-.221-.142-.558-.077-.558.116a.132.132,0,0,0,.1.129c.117.064.13.129.039.27s-.091.27.026.361A.372.372,0,0,0,4.422,18.87Z" fill="#ff007a" fill-rule="evenodd"/>
    <path id="Path_110" data-name="Path 110" d="M69.723,93.687a1.152,1.152,0,0,0-.7.766,1.118,1.118,0,0,0,.065.7c.143.182.273.234.636.234.714,0,1.324-.312,1.389-.688a1,1,0,0,0-.584-.934A1.319,1.319,0,0,0,69.723,93.687Zm.831.649a.292.292,0,0,0-.13-.441c-.35-.221-.883-.039-.883.3,0,.169.273.35.532.35A.717.717,0,0,0,70.554,94.336Z" transform="translate(-60.045 -81.586)" fill="#ff007a" fill-rule="evenodd"/>
  </g>
</svg>
