<svg xmlns="http://www.w3.org/2000/svg" width="29.982" height="26.2" viewBox="0 0 29.982 26.2">
  <path id="Icon_awesome-wallet" data-name="Icon awesome-wallet" d="M25.926,7.607H4.5a.893.893,0,1,1,0-1.786H26.084a.9.9,0,0,0,.9-.893,2.688,2.688,0,0,0-2.7-2.679H3.6A3.584,3.584,0,0,0,0,5.821V23.679A3.584,3.584,0,0,0,3.6,27.25H25.926a2.774,2.774,0,0,0,2.856-2.679V10.286A2.774,2.774,0,0,0,25.926,7.607ZM23.385,19.214a1.786,1.786,0,1,1,1.8-1.786A1.793,1.793,0,0,1,23.385,19.214Z" transform="translate(0.6 -1.65)" fill="none" stroke="#fff" stroke-width="1.2"/>
</svg>
